<svg xmlns="http://www.w3.org/2000/svg" viewBox="0 0 64 64">
  <rect width="64" height="64" rx="13" fill="#0e343e"/>
  <rect x="17" y="17" width="10" height="10" rx="2" fill="#f6bc83"/>
  <path d="M8 12H16M12 8V16M28 12H36M32 8V16M48 12H56M52 8V16M18 12H21M23 12H26M38 12H41M43 12H46M8 32H16M12 28V36M28 32H36M32 28V36M48 32H56M52 28V36M18 32H21M23 32H26M38 32H41M43 32H46M8 52H16M12 48V56M28 52H36M32 48V56M48 52H56M52 48V56M18 52H21M23 52H26M38 52H41M43 52H46M12 18.5V25.5M12 38.5V45.5M32 18.5V25.5M32 38.5V45.5M52 18.5V25.5M52 38.5V45.5" fill="none" stroke="#f5f0e8" stroke-width="2.6"/>
</svg>
